<?xml version="1.0" encoding="utf-8"?>
<!-- Generator: Adobe Illustrator 21.1.0, SVG Export Plug-In . SVG Version: 6.00 Build 0)  -->
<svg version="1.1" id="Ebene_1" xmlns="http://www.w3.org/2000/svg" xmlns:xlink="http://www.w3.org/1999/xlink" x="0px" y="0px"
	 viewBox="0 0 811.2 172.3" style="enable-background:new 0 0 811.2 172.3;" xml:space="preserve">
<style type="text/css">
	.st0{display:none;}
	.st1{fill:#BA0C2F;}
	.st2{fill:#003A70;}
</style>
<g id="Claim">
</g>
<g id="Schlitz" class="st0">
</g>
<g id="real.digital">
	<g>
		<g>
			<g>
				<path class="st1" d="M433.3,30.5h27.9c1,0,1.8,1,1.6,2l-18.2,96.1c-0.1,0.8-0.8,1.4-1.6,1.4h-27.9c-1,0-1.8-1-1.6-2l18.2-96.1
					C431.9,31.1,432.5,30.5,433.3,30.5z M438.2,3.4h27.9c1,0,1.8,0.9,1.7,1.9l-2.4,15.6c-0.1,0.8-0.8,1.4-1.7,1.4h-27.9
					c-1,0-1.8-0.9-1.7-1.9l2.4-15.6C436.7,4,437.4,3.4,438.2,3.4z"/>
				<path class="st1" d="M550.3,122.1c-7.9,38.6-20.3,50.2-57.4,50.2c-14.7,0-24.6-2.8-33.6-5.8c-0.8-0.3-1.3-1.1-1.1-1.9l5.2-23
					c0.3-1.1,1.5-1.6,2.5-1.1c7.4,4.3,15.1,6.4,24,6.6c21.6,0.4,29.4-8.8,34.2-34.2l-0.3-0.4c-6.9,11.1-17,17.4-29.2,17.4
					C470,129.9,458,111,458,84.7c0-30.7,19.1-56.5,47.9-56.5c13.6,0,25.8,6.1,30.9,20.4h0.3l3.7-16.8c0.2-0.8,0.8-1.3,1.6-1.3H566
					c1.1,0,1.9,1,1.6,2L550.3,122.1z M512.2,54.5c-15.5,0-22.3,16.8-22.3,30.7c0,10.3,6.4,18.3,16.2,18.3
					c15.8,0,22.7-18.1,22.7-31.1C528.7,62,523,54.5,512.2,54.5z"/>
				<path class="st1" d="M574.6,30.5h27.9c1,0,1.8,1,1.6,2l-18.2,96.1c-0.1,0.8-0.8,1.4-1.6,1.4h-27.9c-1,0-1.8-1-1.6-2L573,31.9
					C573.1,31.1,573.8,30.5,574.6,30.5z M579.5,3.4h27.9c1,0,1.8,0.9,1.7,1.9l-2.4,15.6c-0.1,0.8-0.8,1.4-1.7,1.4h-27.9
					c-1,0-1.8-0.9-1.7-1.9l2.4-15.6C578,4,578.7,3.4,579.5,3.4z"/>
				<path class="st1" d="M610.7,30.5h14.9c0.8,0,1.5-0.6,1.6-1.3l3.8-19.1c0.1-0.6,0.6-1.1,1.2-1.3l29-8.7c1.2-0.4,2.4,0.7,2.1,1.9
					l-5.2,26.4c-0.2,1,0.6,2,1.6,2H677c1,0,1.8,0.9,1.6,1.9L675.3,53c-0.1,0.8-0.8,1.4-1.6,1.4H654c-0.8,0-1.5,0.6-1.6,1.4
					l-5.1,26.3c-1.4,7.4-2.6,12.4-2.6,17.2c0,6.7,4,11.1,10.1,11.1c2.4,0,4.8-0.8,7.3-1.8c1.2-0.5,2.5,0.5,2.3,1.8l-2.8,18.6
					c-0.1,0.7-0.7,1.3-1.4,1.4c-6.1,1-12.2,1.7-18,1.7c-15.8,0-28.3-8.6-28.3-29.4c0-5,0.7-9.9,2.7-20.4l4.9-25.9c0.2-1-0.6-2-1.6-2
					h-12.5c-1,0-1.8-0.9-1.6-1.9l3.3-20.7C609.2,31.1,609.9,30.5,610.7,30.5z"/>
				<path class="st1" d="M727.9,116l-0.3-0.4v0.4c-6.5,11.5-18,16.2-30.1,16.2c-19.2,0-29.9-9.5-29.9-28.8c0-24.4,22-36.5,49.3-36.5
					c5.5,0,11,0.5,15.1,0.8c0.9,0.1,1.7-0.6,1.8-1.5c0.1-0.8,0.1-1.6,0.1-2.4c0-7.1-6.4-12.8-16.5-12.8s-17.3,1.6-26.2,6.3
					c-1.2,0.6-2.6-0.3-2.4-1.7l2.6-20.8c0.1-0.6,0.5-1.2,1.1-1.4c8.8-3.2,18.4-5.4,31.9-5.4c21.3,0,38.8,9.4,38.8,33.8
					c0,15.4-7.6,37.3-11.2,66.5c-0.1,0.8-0.8,1.5-1.7,1.5h-21.9c-1,0-1.8-0.9-1.7-1.8L727.9,116z M707.2,109.3
					c12.7,0,20.5-9.3,23.1-21.8c0.2-1-0.5-1.9-1.5-2c-2.3-0.3-5-0.3-6.5-0.3c-14.8-0.6-25.6,5.3-25.6,14.1
					C696.8,104,700.7,109.3,707.2,109.3z"/>
				<path class="st1" d="M781.7,3.4h27.9c1,0,1.8,1,1.6,2l-23.3,123.2c-0.1,0.8-0.8,1.4-1.6,1.4h-27.9c-1,0-1.8-1-1.6-2L780.1,4.8
					C780.2,4,780.9,3.4,781.7,3.4z"/>
			</g>
			<g>
				<path class="st2" d="M299.2,5.5c0,0,0.4-2.1-1.7-2.1h-27.3c0,0-2.1,0-2.5,2.1L245,127.8c0,0-0.4,2.1,1.7,2.1H274
					c0,0,2.1,0,2.5-2.1L299.2,5.5z"/>
				<path class="st2" d="M134.2,70.3H96.6c3.1-9.6,11.3-19.8,24.5-19.8C132.3,50.5,135.2,59.6,134.2,70.3 M159.6,71.1
					c2.9-30.4-13.4-43.7-36.7-43.7c-39.5,0-56.5,35.8-58.8,59.1c-2.4,25.2,11.6,45.8,41.2,45.8c8.4,0,19.2-1.8,29.8-5.1
					c1-0.3,1.8-1,2.1-2l0,0l5-19.4l0,0c0.2-1.2-0.6-2.1-1.7-2.1c-0.3,0-0.6,0.1-0.8,0.2l0,0c-8.3,3.5-17.8,5.3-24.9,5.3
					c-18.7,0-22.7-8.5-22-19.3h60.9l0,0l0,0h0.1l0,0c1.1,0,2.1-0.8,2.4-1.9l0,0C157.7,82.3,159.3,74.7,159.6,71.1 M218.6,85.4
					c-2.2,13.5-10.2,23.7-23.6,23.7c-6.6,0-10.6-5.4-10.6-10c0-8.9,10.9-14.8,25.8-14.3C212.2,84.8,216,84.8,218.6,85.4 M240.2,128
					c3.6-29.3,11.2-51.2,11.2-66.6c0-24.7-17.7-34.1-39.2-34.1c-13.4,0-23,2.1-31.9,5.3l0,0c-0.7,0.3-1.3,0.9-1.4,1.7l0,0l-2.5,20.4
					l0,0c-0.2,1.2,0.6,2.1,1.7,2.1c0.3,0,0.6-0.1,0.8-0.2l0,0c8.9-4.7,16.1-6.3,26.3-6.3s16.6,5.8,16.6,12.9c0,1.3,0,2.7-0.3,4
					c-4.3-0.4-10.6-1-16.8-1c-27.6,0-49.7,12.1-49.7,36.8c0,19.5,10.8,29.1,30.2,29.1c12.1,0,23.7-4.8,30.3-16.4v-0.4l0.3,0.4
					l-1.2,11.9l0,0l0,0c0,1.1,0.9,2.1,2.1,2.1l0,0h0.1l0,0l0,0H238l0,0l0,0C239.1,129.9,240,129.1,240.2,128L240.2,128z"/>
				<path class="st2" d="M77.5,27.2C77.5,27.1,77.5,27.1,77.5,27.2c0.1-0.7-0.3-1.3-0.9-1.3l0,0h-0.1l0,0l0,0
					c-5.2,0.1-24.8,2-32,25.4l4-20.2l0,0c0-0.1,0-0.3,0-0.4c0-1.2-0.9-2.1-2.1-2.1h-0.1l0,0H19.8l0,0h-0.1c-1,0-1.9,0.8-2.1,1.7l0,0
					L0,127.5l0,0v0.1l0,0c0,0.1,0,0.2,0,0.3c0,1.2,0.9,2.1,2.1,2.1l0,0h27.8l0,0c0,0,0,0,0.1,0c1,0,1.8-0.7,2.1-1.6l0,0l11.1-52.5
					c0,0,7.6-23.7,26.5-20.3h0.2c1.1,0,2.2-0.9,2.5-2l0,0L77.5,27.2L77.5,27.2z"/>
			</g>
			<g>
				<path class="st1" d="M384.1,113.9h-0.3c-7.6,11.1-14.8,18.2-31.3,18.2c-18.6,0-32.2-18.8-32.2-41.2c0-32.8,14.3-63.3,43.8-63.3
					c15.1,0,25.5,7.7,30,18.4h0.3l7.1-40.9c0.2-0.9,0.9-1.6,1.8-1.6h25.4c1.2,0,2.1,1.1,1.8,2.3l-19.6,109.1c-0.8,5-1.3,9.3-1.7,13
					c-0.1,1.1-0.9,2-1.9,2h-23.4c-1.2,0-2.1-1.2-1.9-2.6L384.1,113.9z M387.9,74.4c0-10-4.3-20.3-14.3-20.3
					c-14.1,0-22.5,15.5-22.5,31.1c0,12.3,4.8,20.5,14.3,20.5C379.5,105.6,387.9,87.6,387.9,74.4z"/>
				<path class="st1" d="M290,102.8h24.7c1.2,0,2,1.1,1.8,2.2l-5,23.6c-0.2,0.8-0.9,1.5-1.8,1.5H285c-1.2,0-2-1.1-1.8-2.2l5-23.6
					C288.4,103.4,289.2,102.8,290,102.8z"/>
			</g>
		</g>
	</g>
</g>
</svg>
